# xmcd
#
# Track frame offsets:
#	150
#	13913
#	30072
#	42542
#	51863
#	62687
#	76743
#	88984
#	105645
#	118665
#	135777
#	148818
#	161771
#	174979
#	192214
#	211064
#
# Disc length: 3003 seconds
#
# Revision: 1
# Processed by: cddbd v1.4PL0 Copyright (c) Steve Scherf et al.
# Submitted via: audiograbber 1.81.03
#
DISCID=d00bb910
DTITLE=Various Artist - Country Love Songs
DYEAR=1996
DGENRE=Country
TTITLE0=Willie Nelson - Funny How Time Slips Away
TTITLE1=Billie Jo Spears - Blanket On The Ground
TTITLE2=Faron Young - Sweet Dreams
TTITLE3=Glen Campbell and Bobbie Gentry - Let It Be Me
TTITLE4=The Everly Brothers - Devoted To You
TTITLE5=Lacy J.Dalton - Still Crazy After All These Years
TTITLE6=Glen Campbell - By The Time I Get To Phoenix
TTITLE7=Don McLean - Cryin'
TTITLE8=Dr.Hook - Sharing The Night Together
TTITLE9=Tanya Tucker - Love Me Like You Used To Do
TTITLE10=Crystal Gayle - Dreaming My Dreams With You
TTITLE11=Don Williams - You Love Me Through It All
TTITLE12=Slim Whitman - Among My Souvenirs
TTITLE13=Olivia Newton-John - Country Girl
TTITLE14=Juice Newton - Angel Of The Morning
TTITLE15=Tennessee Ernie Ford - Give Me Your Word
EXTD=ID3G: 2
EXTT0=
EXTT1=
EXTT2=
EXTT3=
EXTT4=
EXTT5=
EXTT6=
EXTT7=
EXTT8=
EXTT9=
EXTT10=
EXTT11=
EXTT12=
EXTT13=
EXTT14=
EXTT15=
PLAYORDER=
